<svg xmlns="http://www.w3.org/2000/svg" xmlns:xlink="http://www.w3.org/1999/xlink" width="600" zoomAndPan="magnify" viewBox="0 0 450 449.999984" height="600" preserveAspectRatio="xMidYMid meet" version="1.0"><defs><clipPath id="eb9431725e"><path d="M 66.046875 66.046875 L 384.046875 66.046875 L 384.046875 384.046875 L 66.046875 384.046875 Z M 66.046875 66.046875 " clip-rule="nonzero"/></clipPath></defs><g clip-path="url(#eb9431725e)"><path fill="#000000" d="M 384.105469 225.078125 C 384.105469 227.679688 384.039062 230.28125 383.914062 232.878906 C 383.785156 235.480469 383.59375 238.074219 383.339844 240.664062 C 383.085938 243.253906 382.765625 245.835938 382.382812 248.410156 C 382 250.984375 381.558594 253.550781 381.050781 256.101562 C 380.542969 258.652344 379.972656 261.191406 379.339844 263.71875 C 378.707031 266.242188 378.011719 268.75 377.257812 271.238281 C 376.5 273.730469 375.683594 276.199219 374.808594 278.652344 C 373.933594 281.101562 372.996094 283.53125 372 285.933594 C 371.003906 288.339844 369.949219 290.71875 368.835938 293.070312 C 367.722656 295.421875 366.554688 297.746094 365.328125 300.042969 C 364.101562 302.335938 362.816406 304.601562 361.480469 306.832031 C 360.140625 309.066406 358.75 311.265625 357.304688 313.429688 C 355.859375 315.59375 354.359375 317.71875 352.808594 319.808594 C 351.257812 321.898438 349.65625 323.949219 348.007812 325.964844 C 346.355469 327.976562 344.65625 329.945312 342.910156 331.875 C 341.160156 333.800781 339.367188 335.6875 337.527344 337.527344 C 335.6875 339.367188 333.800781 341.160156 331.875 342.910156 C 329.945312 344.65625 327.976562 346.355469 325.964844 348.007812 C 323.953125 349.65625 321.898438 351.257812 319.808594 352.808594 C 317.71875 354.359375 315.59375 355.859375 313.429688 357.304688 C 311.265625 358.75 309.066406 360.140625 306.832031 361.480469 C 304.601562 362.816406 302.335938 364.101562 300.042969 365.328125 C 297.746094 366.554688 295.421875 367.722656 293.070312 368.835938 C 290.71875 369.949219 288.339844 371.003906 285.933594 372 C 283.53125 372.996094 281.101562 373.933594 278.652344 374.808594 C 276.199219 375.683594 273.730469 376.5 271.238281 377.257812 C 268.75 378.011719 266.242188 378.707031 263.71875 379.339844 C 261.191406 379.972656 258.652344 380.542969 256.101562 381.050781 C 253.550781 381.558594 250.984375 382 248.410156 382.382812 C 245.835938 382.765625 243.253906 383.085938 240.664062 383.339844 C 238.074219 383.59375 235.480469 383.785156 232.878906 383.914062 C 230.28125 384.039062 227.679688 384.105469 225.078125 384.105469 C 222.472656 384.105469 219.871094 384.039062 217.273438 383.914062 C 214.675781 383.785156 212.078125 383.59375 209.488281 383.339844 C 206.898438 383.085938 204.316406 382.765625 201.742188 382.382812 C 199.167969 382 196.605469 381.558594 194.050781 381.050781 C 191.5 380.542969 188.960938 379.972656 186.4375 379.339844 C 183.910156 378.707031 181.402344 378.011719 178.914062 377.257812 C 176.421875 376.5 173.953125 375.683594 171.5 374.808594 C 169.050781 373.933594 166.625 372.996094 164.21875 372 C 161.816406 371.003906 159.4375 369.949219 157.082031 368.835938 C 154.730469 367.722656 152.40625 366.554688 150.109375 365.328125 C 147.816406 364.101562 145.550781 362.816406 143.320312 361.480469 C 141.085938 360.140625 138.890625 358.75 136.726562 357.304688 C 134.5625 355.859375 132.433594 354.359375 130.34375 352.808594 C 128.253906 351.257812 126.203125 349.65625 124.191406 348.007812 C 122.179688 346.355469 120.207031 344.65625 118.28125 342.910156 C 116.351562 341.160156 114.46875 339.367188 112.625 337.527344 C 110.785156 335.6875 108.992188 333.800781 107.246094 331.875 C 105.496094 329.945312 103.796875 327.976562 102.144531 325.964844 C 100.496094 323.949219 98.894531 321.898438 97.34375 319.808594 C 95.792969 317.71875 94.296875 315.59375 92.847656 313.429688 C 91.402344 311.265625 90.011719 309.066406 88.671875 306.832031 C 87.335938 304.601562 86.054688 302.335938 84.828125 300.042969 C 83.597656 297.746094 82.429688 295.421875 81.316406 293.070312 C 80.203125 290.71875 79.148438 288.339844 78.152344 285.933594 C 77.15625 283.53125 76.222656 281.101562 75.34375 278.652344 C 74.46875 276.199219 73.652344 273.730469 72.894531 271.238281 C 72.140625 268.75 71.445312 266.242188 70.8125 263.71875 C 70.183594 261.191406 69.613281 258.652344 69.105469 256.101562 C 68.597656 253.550781 68.152344 250.984375 67.769531 248.410156 C 67.386719 245.835938 67.070312 243.253906 66.8125 240.664062 C 66.558594 238.074219 66.367188 235.480469 66.238281 232.878906 C 66.113281 230.28125 66.046875 227.679688 66.046875 225.078125 C 66.046875 222.472656 66.113281 219.871094 66.238281 217.273438 C 66.367188 214.675781 66.558594 212.078125 66.8125 209.488281 C 67.070312 206.898438 67.386719 204.316406 67.769531 201.742188 C 68.152344 199.167969 68.597656 196.605469 69.105469 194.050781 C 69.613281 191.5 70.183594 188.960938 70.8125 186.4375 C 71.445312 183.910156 72.140625 181.402344 72.894531 178.914062 C 73.652344 176.421875 74.46875 173.953125 75.34375 171.5 C 76.222656 169.050781 77.15625 166.625 78.152344 164.21875 C 79.148438 161.816406 80.203125 159.4375 81.316406 157.082031 C 82.429688 154.730469 83.597656 152.40625 84.828125 150.109375 C 86.054688 147.816406 87.335938 145.550781 88.671875 143.320312 C 90.011719 141.085938 91.402344 138.890625 92.847656 136.726562 C 94.296875 134.5625 95.792969 132.433594 97.34375 130.34375 C 98.894531 128.253906 100.496094 126.203125 102.144531 124.191406 C 103.796875 122.179688 105.496094 120.207031 107.246094 118.28125 C 108.992188 116.351562 110.785156 114.46875 112.625 112.625 C 114.46875 110.785156 116.351562 108.992188 118.28125 107.246094 C 120.207031 105.496094 122.179688 103.796875 124.191406 102.144531 C 126.203125 100.496094 128.253906 98.894531 130.34375 97.34375 C 132.433594 95.792969 134.5625 94.296875 136.726562 92.847656 C 138.890625 91.402344 141.085938 90.011719 143.320312 88.671875 C 145.550781 87.335938 147.816406 86.054688 150.109375 84.828125 C 152.40625 83.597656 154.730469 82.429688 157.082031 81.316406 C 159.4375 80.203125 161.816406 79.148438 164.21875 78.152344 C 166.625 77.15625 169.050781 76.222656 171.5 75.34375 C 173.953125 74.46875 176.421875 73.652344 178.914062 72.894531 C 181.402344 72.140625 183.910156 71.445312 186.4375 70.8125 C 188.960938 70.183594 191.5 69.613281 194.050781 69.105469 C 196.605469 68.597656 199.167969 68.152344 201.742188 67.769531 C 204.316406 67.386719 206.898438 67.070312 209.488281 66.8125 C 212.078125 66.558594 214.675781 66.367188 217.273438 66.238281 C 219.871094 66.113281 222.472656 66.046875 225.078125 66.046875 C 227.679688 66.046875 230.28125 66.113281 232.878906 66.238281 C 235.480469 66.367188 238.074219 66.558594 240.664062 66.8125 C 243.253906 67.070312 245.835938 67.386719 248.410156 67.769531 C 250.984375 68.152344 253.550781 68.597656 256.101562 69.105469 C 258.652344 69.613281 261.191406 70.183594 263.71875 70.8125 C 266.242188 71.445312 268.75 72.140625 271.238281 72.894531 C 273.730469 73.652344 276.199219 74.46875 278.652344 75.34375 C 281.101562 76.222656 283.53125 77.15625 285.933594 78.152344 C 288.339844 79.148438 290.71875 80.203125 293.070312 81.316406 C 295.421875 82.429688 297.746094 83.597656 300.042969 84.828125 C 302.335938 86.054688 304.601562 87.335938 306.832031 88.671875 C 309.066406 90.011719 311.265625 91.402344 313.429688 92.847656 C 315.59375 94.296875 317.71875 95.792969 319.808594 97.34375 C 321.898438 98.894531 323.949219 100.496094 325.964844 102.144531 C 327.976562 103.796875 329.945312 105.496094 331.875 107.246094 C 333.800781 108.992188 335.6875 110.785156 337.527344 112.625 C 339.367188 114.46875 341.160156 116.351562 342.910156 118.28125 C 344.65625 120.207031 346.355469 122.179688 348.007812 124.191406 C 349.65625 126.203125 351.257812 128.253906 352.808594 130.34375 C 354.359375 132.433594 355.859375 134.5625 357.304688 136.726562 C 358.75 138.890625 360.140625 141.085938 361.480469 143.320312 C 362.816406 145.550781 364.101562 147.816406 365.328125 150.109375 C 366.554688 152.40625 367.722656 154.730469 368.835938 157.082031 C 369.949219 159.4375 371.003906 161.816406 372 164.21875 C 372.996094 166.625 373.933594 169.050781 374.808594 171.5 C 375.683594 173.953125 376.5 176.421875 377.257812 178.914062 C 378.011719 181.402344 378.707031 183.910156 379.339844 186.4375 C 379.972656 188.960938 380.542969 191.5 381.050781 194.050781 C 381.558594 196.605469 382 199.167969 382.382812 201.742188 C 382.765625 204.316406 383.085938 206.898438 383.339844 209.488281 C 383.59375 212.078125 383.785156 214.675781 383.914062 217.273438 C 384.039062 219.871094 384.105469 222.472656 384.105469 225.078125 Z M 384.105469 225.078125 " fill-opacity="1" fill-rule="nonzero"/></g><path fill="#25f4ee" d="M 203.964844 202.34375 L 203.964844 193.714844 C 201.070312 193.320312 198.132812 193.078125 195.140625 193.078125 C 159.035156 193.078125 129.664062 222.449219 129.664062 258.558594 C 129.664062 280.710938 140.734375 300.3125 157.621094 312.171875 C 146.71875 300.46875 140.253906 284.792969 140.253906 267.582031 C 140.253906 231.996094 168.578125 203.160156 203.964844 202.34375 Z M 203.964844 202.34375 " fill-opacity="1" fill-rule="nonzero"/><path fill="#25f4ee" d="M 205.503906 297.671875 C 221.617188 297.671875 234.945312 284.667969 235.539062 268.710938 L 235.679688 126.328125 L 261.492188 126.328125 C 261.492188 126.328125 261.453125 126.132812 261.453125 126.132812 C 260.914062 123.210938 260.617188 120.1875 260.617188 117.109375 L 225.046875 117.109375 L 224.992188 259.6875 C 224.398438 275.65625 211.253906 288.464844 195.140625 288.464844 C 190.128906 288.464844 185.425781 287.207031 181.273438 285.035156 C 186.710938 292.558594 195.535156 297.6875 205.519531 297.6875 Z M 205.503906 297.671875 " fill-opacity="1" fill-rule="nonzero"/><path fill="#25f4ee" d="M 310.125 174.933594 L 310.125 166.574219 C 300.183594 166.574219 290.9375 163.621094 283.167969 158.554688 C 290.074219 166.488281 299.464844 172.644531 310.125 174.917969 Z M 310.125 174.933594 " fill-opacity="1" fill-rule="nonzero"/><path fill="#fe2c55" d="M 283.167969 158.566406 C 275.601562 149.871094 270.996094 138.53125 270.996094 126.117188 L 261.308594 126.117188 C 263.824219 139.675781 272.027344 151.308594 283.167969 158.566406 Z M 283.167969 158.566406 " fill-opacity="1" fill-rule="nonzero"/><path fill="#fe2c55" d="M 195.140625 228.367188 C 178.648438 228.367188 165.035156 242.050781 165.035156 258.542969 C 165.035156 270.023438 171.742188 280.007812 181.261719 285.019531 C 177.714844 280.105469 175.597656 274.089844 175.597656 267.582031 C 175.597656 251.085938 189.011719 237.671875 205.503906 237.671875 C 208.582031 237.671875 211.535156 238.179688 214.332031 239.054688 L 214.332031 202.738281 C 211.4375 202.34375 208.5 202.101562 205.503906 202.101562 C 204.984375 202.101562 204.472656 202.128906 203.964844 202.144531 L 203.824219 202.144531 C 203.824219 202.144531 203.726562 229.636719 203.726562 229.636719 C 200.929688 228.761719 198.21875 228.378906 195.140625 228.378906 Z M 195.140625 228.367188 " fill-opacity="1" fill-rule="nonzero"/><path fill="#fe2c55" d="M 310.125 174.511719 L 309.957031 174.480469 L 309.957031 201.945312 C 291.5 201.945312 274.359375 195.875 260.40625 185.863281 L 260.40625 258.542969 C 260.40625 294.648438 231.246094 323.835938 195.140625 323.835938 C 181.1875 323.835938 168.253906 319.617188 157.609375 312.144531 C 169.566406 324.980469 186.613281 333.042969 205.503906 333.042969 C 241.613281 333.042969 270.984375 303.671875 270.984375 267.566406 L 270.984375 195.269531 C 284.933594 205.28125 302.035156 211.183594 320.476562 211.183594 L 320.476562 175.613281 C 316.917969 175.613281 313.457031 175.230469 310.113281 174.511719 Z M 310.125 174.511719 " fill-opacity="1" fill-rule="nonzero"/><path fill="#ffffff" d="M 260.617188 258.542969 L 260.617188 186.246094 C 274.570312 196.257812 291.671875 202.160156 310.113281 202.160156 L 310.113281 174.511719 C 299.449219 172.222656 290.074219 166.503906 283.15625 158.566406 C 272.015625 151.296875 263.964844 139.675781 261.453125 126.117188 L 235.398438 126.117188 L 235.34375 268.695312 C 234.75 284.667969 221.601562 297.472656 205.492188 297.472656 C 195.507812 297.472656 186.683594 292.546875 181.246094 285.003906 C 171.726562 279.992188 165.21875 270.023438 165.21875 258.527344 C 165.21875 242.035156 178.632812 228.621094 195.125 228.621094 C 198.203125 228.621094 201.15625 229.128906 203.953125 230.003906 L 203.953125 202.117188 C 168.550781 202.949219 140.011719 231.96875 140.011719 267.566406 C 140.011719 284.78125 146.707031 300.453125 157.59375 312.160156 C 168.226562 319.628906 181.160156 324.019531 195.125 324.019531 C 231.234375 324.019531 260.605469 294.648438 260.605469 258.542969 Z M 260.617188 258.542969 " fill-opacity="1" fill-rule="nonzero"/></svg>
