<svg xmlns="http://www.w3.org/2000/svg" xmlns:xlink="http://www.w3.org/1999/xlink" width="600" zoomAndPan="magnify" viewBox="0 0 450 449.999984" height="600" preserveAspectRatio="xMidYMid meet" version="1.0"><defs><clipPath id="9e8cb011f5"><path d="M 66.046875 66.046875 L 384.046875 66.046875 L 384.046875 384 L 66.046875 384 Z M 66.046875 66.046875 " clip-rule="nonzero"/></clipPath></defs><rect x="-45" width="540" fill="#ffffff" y="-44.999998" height="539.99998" fill-opacity="1"/><rect x="-45" width="540" fill="#ffffff" y="-44.999998" height="539.99998" fill-opacity="1"/><g clip-path="url(#9e8cb011f5)"><path fill="#289245" d="M 383.824219 303.25 C 383.824219 305.054688 383.746094 308.738281 383.671875 311.667969 C 383.445312 318.734375 382.847656 327.980469 382.019531 332.1875 C 380.667969 338.5 378.789062 344.4375 376.308594 349.398438 C 373.226562 355.261719 369.46875 360.523438 364.957031 365.03125 C 360.375 369.542969 355.113281 373.375 349.324219 376.382812 C 344.363281 378.863281 338.277344 380.890625 331.960938 382.167969 C 327.828125 383.070312 318.660156 383.523438 311.59375 383.824219 C 308.738281 383.972656 304.90625 383.972656 303.175781 383.972656 L 146.542969 383.972656 C 144.816406 383.972656 141.058594 383.898438 138.125 383.746094 C 131.0625 383.523438 121.816406 382.921875 117.609375 382.019531 C 111.292969 380.742188 105.433594 378.789062 100.472656 376.308594 C 94.609375 373.300781 89.421875 369.46875 84.839844 364.957031 C 80.253906 360.449219 76.570312 355.261719 73.5625 349.398438 C 71.007812 344.4375 69.054688 338.351562 67.777344 332.113281 C 67.027344 327.980469 66.347656 318.808594 66.199219 311.667969 C 66.125 308.738281 66.046875 304.980469 66.046875 303.25 L 66.125 146.695312 C 66.125 144.964844 66.125 141.207031 66.199219 138.277344 C 66.425781 131.136719 67.027344 121.890625 67.851562 117.757812 C 69.128906 111.371094 71.085938 105.507812 73.5625 100.546875 C 76.570312 94.757812 80.480469 89.421875 84.988281 84.914062 C 89.5 80.402344 94.757812 76.570312 100.546875 73.640625 C 105.507812 71.085938 111.519531 69.207031 117.984375 67.925781 C 122.042969 67.101562 131.210938 66.574219 138.351562 66.273438 C 141.058594 66.125 144.890625 66.125 146.621094 66.125 L 303.175781 66.125 C 304.980469 66.125 308.738281 66.199219 311.59375 66.273438 C 318.808594 66.5 327.980469 67.101562 332.1875 68.003906 C 338.425781 69.207031 344.4375 71.160156 349.324219 73.714844 C 355.261719 76.722656 360.523438 80.554688 365.03125 85.0625 C 369.542969 89.648438 373.300781 94.910156 376.382812 100.773438 C 378.9375 105.734375 380.890625 111.671875 382.167969 117.984375 C 382.996094 122.191406 383.597656 131.285156 383.824219 138.351562 C 383.972656 141.359375 384.046875 145.042969 384.046875 146.769531 Z M 383.824219 303.25 " fill-opacity="1" fill-rule="evenodd"/></g><path fill="#ffffff" d="M 300.019531 201.484375 L 300.019531 170.070312 L 306.484375 170.070312 L 306.484375 197.050781 C 304.753906 197.953125 302.351562 199.605469 300.019531 201.484375 M 288.820312 210.957031 C 290.851562 208.550781 292.953125 206.144531 295.285156 204.191406 L 295.285156 170.070312 L 288.820312 170.070312 Z M 214.261719 235.832031 C 214.261719 244.328125 217.644531 252.21875 223.65625 258.304688 C 229.746094 264.320312 237.636719 267.703125 246.054688 267.703125 C 249.664062 267.703125 253.347656 266.875 255.828125 265.671875 L 255.828125 259.285156 C 252.746094 260.5625 249.136719 261.238281 246.054688 261.238281 C 232.226562 261.238281 220.652344 249.664062 220.652344 235.910156 L 220.652344 230.121094 C 220.652344 216.367188 232.226562 204.792969 246.054688 204.792969 C 252.820312 204.792969 259.359375 207.421875 264.019531 212.160156 C 268.828125 216.894531 271.382812 223.28125 271.382812 230.121094 L 271.382812 267.703125 L 277.921875 267.703125 L 277.921875 228.917969 C 277.472656 220.726562 273.941406 212.984375 268.003906 207.273438 C 261.914062 201.484375 254.246094 198.40625 246.054688 198.40625 C 237.636719 198.40625 229.671875 201.710938 223.65625 207.722656 C 217.644531 213.8125 214.261719 221.703125 214.261719 230.121094 Z M 310.691406 220.425781 C 313.546875 217.496094 317.382812 215.839844 321.066406 215.839844 C 329.105469 215.839844 335.195312 222.003906 335.195312 229.972656 L 335.195312 235.757812 C 335.195312 243.726562 329.03125 249.886719 321.066406 249.886719 C 317.230469 249.886719 313.472656 247.785156 310.617188 243.949219 C 308.0625 240.570312 306.332031 235.984375 306.109375 231.925781 L 300.921875 238.3125 C 301.898438 243.125 304.453125 247.710938 308.0625 251.089844 C 311.820312 254.472656 316.40625 256.351562 321.066406 256.351562 C 332.414062 256.351562 341.734375 247.109375 341.734375 235.683594 L 341.734375 229.894531 C 341.734375 224.484375 339.554688 219.375 335.570312 215.390625 C 331.664062 211.480469 326.476562 209.300781 321.066406 209.300781 C 317.683594 209.300781 312.269531 210.503906 305.808594 216.292969 L 305.730469 216.367188 C 304.078125 218.097656 300.019531 222.078125 297.464844 224.9375 C 293.332031 229.445312 287.316406 236.359375 282.207031 243.199219 L 282.207031 253.195312 C 287.917969 245.828125 291.226562 241.847656 296.5625 235.683594 C 301.371094 230.195312 307.308594 223.355469 310.691406 220.425781 M 158.496094 208.324219 L 158.496094 200.660156 C 152.707031 197.503906 146.320312 196.148438 137.902344 196.148438 C 129.332031 196.148438 121.140625 199.230469 114.902344 205.019531 C 108.738281 210.730469 105.28125 218.320312 105.28125 226.289062 L 105.28125 228.316406 C 105.28125 245.003906 118.585938 258.457031 134.96875 258.457031 C 148.347656 258.457031 153.835938 254.097656 155.1875 252.746094 L 155.1875 233.355469 L 133.390625 233.355469 L 133.390625 239.816406 L 149.175781 239.816406 L 149.175781 249.511719 L 149.101562 249.511719 C 146.996094 250.339844 142.785156 251.992188 134.894531 251.992188 C 128.65625 251.992188 122.792969 249.511719 118.433594 245.152344 C 114 240.71875 111.519531 234.707031 111.519531 228.316406 L 111.519531 226.289062 C 111.519531 213.359375 123.546875 202.539062 137.75 202.539062 C 147.671875 202.613281 153.535156 204.265625 158.496094 208.324219 M 205.46875 215.917969 C 207.875 215.917969 209.980469 216.292969 211.632812 217.042969 C 212.460938 215.089844 213.210938 213.4375 214.414062 211.40625 C 212.683594 210.128906 208.550781 209.378906 205.394531 209.378906 C 193.667969 209.378906 184.726562 218.246094 184.726562 230.046875 L 184.726562 267.625 L 191.1875 267.625 L 191.1875 230.046875 C 191.265625 221.703125 197.050781 215.917969 205.46875 215.917969 M 94.007812 226.363281 L 94.007812 228.394531 C 94.007812 239.589844 98.292969 249.886719 105.957031 257.707031 C 113.550781 265.445312 123.847656 269.65625 134.894531 269.65625 C 143.761719 269.65625 151.578125 267.703125 158.117188 263.644531 C 163.605469 260.484375 166.085938 257.179688 166.234375 256.878906 L 166.234375 222.230469 L 133.390625 222.230469 L 133.390625 228.695312 L 159.921875 228.695312 L 159.921875 254.925781 C 156.765625 258.003906 149.476562 263.265625 134.96875 263.265625 C 125.574219 263.265625 116.78125 259.734375 110.46875 253.195312 C 104.003906 246.65625 100.472656 237.863281 100.472656 228.46875 L 100.472656 226.4375 C 100.472656 217.417969 104.53125 208.550781 111.519531 201.9375 C 118.660156 195.171875 128.054688 191.488281 137.902344 191.488281 C 147.070312 191.488281 153.457031 192.917969 158.496094 196 L 158.496094 188.707031 C 153.160156 186.453125 146.769531 185.402344 137.902344 185.402344 C 114.152344 185.402344 94.007812 204.191406 94.007812 226.363281 M 266.648438 267.625 L 266.648438 230.046875 C 266.648438 218.472656 257.628906 209.378906 246.054688 209.378906 C 240.71875 209.378906 235.53125 211.558594 231.550781 215.464844 C 227.640625 219.449219 225.460938 224.558594 225.460938 229.972656 L 225.460938 235.757812 C 225.460938 246.957031 234.933594 256.425781 246.054688 256.425781 C 249.136719 256.425781 253.347656 255.601562 255.828125 253.496094 L 255.828125 246.730469 C 253.269531 248.761719 249.664062 249.886719 246.054688 249.886719 C 238.164062 249.886719 231.851562 243.726562 231.851562 235.757812 L 231.851562 229.972656 C 231.851562 221.929688 238.089844 215.839844 246.054688 215.839844 C 254.023438 215.839844 260.261719 222.003906 260.261719 229.972656 L 260.261719 267.550781 L 266.648438 267.550781 Z M 205.46875 204.71875 C 209.828125 204.71875 213.585938 205.621094 217.042969 207.574219 C 218.621094 205.542969 220.351562 203.964844 221.554688 202.6875 C 217.945312 199.90625 211.78125 198.328125 205.542969 198.328125 C 196.601562 198.328125 188.40625 201.484375 182.695312 207.347656 C 176.910156 213.210938 173.675781 221.175781 173.675781 230.121094 L 173.675781 267.703125 L 180.214844 267.703125 L 180.214844 230.121094 C 180.140625 215.089844 190.511719 204.71875 205.46875 204.71875 M 343.460938 207.648438 C 337.449219 201.5625 329.40625 198.328125 321.066406 198.328125 C 314.902344 198.328125 308.8125 200.507812 305.429688 202.761719 C 298.441406 207.421875 292.578125 212.535156 282.28125 225.914062 L 282.28125 235.53125 C 291.152344 224.035156 299.417969 215.089844 305.808594 210.054688 C 309.941406 206.746094 315.804688 204.644531 321.140625 204.644531 C 334.894531 204.644531 346.46875 216.21875 346.46875 229.972656 L 346.46875 235.757812 C 346.46875 242.597656 343.839844 248.910156 338.953125 253.648438 C 334.140625 258.53125 327.828125 261.085938 321.066406 261.085938 C 309.789062 261.085938 299.792969 253.347656 297.164062 242.75 L 292.578125 248.160156 C 295.886719 259.359375 307.835938 267.550781 321.066406 267.550781 C 329.484375 267.550781 337.449219 264.242188 343.460938 258.15625 C 349.550781 252.144531 352.855469 244.175781 352.855469 235.683594 L 352.855469 229.894531 C 352.855469 221.628906 349.550781 213.738281 343.460938 207.648438 " fill-opacity="1" fill-rule="nonzero"/></svg>