<svg xmlns="http://www.w3.org/2000/svg" xmlns:xlink="http://www.w3.org/1999/xlink" width="600" zoomAndPan="magnify" viewBox="0 0 450 449.999984" height="600" preserveAspectRatio="xMidYMid meet" version="1.0"><path fill="#48b061" d="M 83.332031 84.273438 C 83.640625 83.960938 83.953125 83.652344 84.261719 83.34375 C 86.585938 82.722656 88.136719 81.328125 88.757812 78.847656 C 89.066406 78.539062 89.53125 78.226562 89.839844 77.917969 C 90.152344 77.761719 90.304688 77.453125 90.617188 77.296875 C 90.769531 76.988281 90.925781 76.832031 91.234375 76.832031 C 93.40625 76.988281 94.800781 75.28125 96.195312 74.351562 C 108.28125 66.136719 121.453125 60.867188 136.175781 60.867188 C 193.667969 60.867188 251.3125 60.867188 308.804688 60.710938 C 322.90625 60.710938 335.613281 64.742188 347.234375 72.183594 C 368.15625 85.511719 378.847656 105.195312 381.792969 129.53125 C 381.792969 189.207031 381.792969 248.882812 381.792969 308.402344 C 380.398438 318.789062 378.074219 328.707031 372.804688 338.007812 C 371.253906 340.796875 368.464844 343.277344 368.464844 346.996094 C 368.464844 347.152344 368.3125 347.460938 368.15625 347.460938 C 366.296875 347.617188 365.367188 349.011719 364.28125 350.253906 C 350.335938 367.148438 332.359375 376.757812 310.355469 376.757812 C 251.933594 377.066406 193.511719 376.914062 134.933594 376.914062 C 131.0625 376.914062 127.1875 376.757812 123.46875 375.828125 C 108.28125 371.644531 94.488281 364.824219 83.640625 352.886719 C 81.9375 351.027344 81.316406 348.238281 78.375 347.773438 L 78.683594 347.460938 L 78.375 347.773438 C 78.839844 344.984375 76.359375 343.585938 75.121094 341.726562 C 66.285156 328.085938 64.273438 312.742188 64.425781 297.085938 C 64.738281 242.371094 63.652344 187.8125 65.046875 133.097656 C 65.355469 118.371094 69.695312 105.507812 77.445312 93.261719 C 79.457031 90.316406 83.332031 88.457031 83.332031 84.273438 M 176.777344 210.597656 C 175.226562 210.597656 174.605469 209.203125 173.675781 208.273438 C 164.378906 199.128906 155.234375 189.671875 145.9375 180.527344 C 144.078125 178.667969 142.375 176.1875 139.738281 174.949219 C 139.585938 175.414062 139.273438 175.722656 139.273438 176.03125 C 139.273438 213.078125 139.121094 250.121094 139.273438 287.167969 C 139.273438 294.917969 145.78125 301.894531 153.53125 303.441406 C 164.6875 305.613281 172.746094 299.722656 176.3125 287.011719 C 176.621094 287.941406 177.085938 288.71875 177.859375 290.734375 C 177.859375 264.382812 177.859375 239.117188 177.859375 213.851562 C 178.015625 212.613281 177.859375 211.371094 176.777344 210.597656 M 139.273438 152.628906 C 139.121094 158.050781 141.289062 162.546875 145.007812 166.265625 C 170.113281 191.378906 195.371094 216.488281 220.320312 241.753906 C 222.800781 244.234375 223.882812 243.457031 225.898438 241.441406 C 234.886719 232.296875 244.03125 223.308594 253.019531 214.316406 C 269.132812 198.199219 285.25 182.234375 301.210938 165.957031 C 309.113281 158.050781 308.648438 146.273438 300.589844 138.988281 C 292.6875 132.011719 282.152344 132.789062 273.9375 141.003906 C 257.976562 156.96875 241.859375 172.933594 226.054688 189.050781 C 223.882812 191.378906 222.488281 191.6875 220.164062 189.050781 C 215.671875 184.09375 210.710938 179.597656 206.0625 174.792969 C 194.441406 163.167969 182.972656 151.542969 171.351562 140.074219 C 165.308594 134.183594 158.179688 132.476562 150.433594 135.730469 C 143.304688 138.832031 139.585938 144.566406 139.273438 152.628906 M 306.324219 175.257812 C 305.394531 175.101562 304.929688 175.878906 304.464844 176.34375 C 293.464844 187.191406 282.617188 198.199219 271.613281 209.046875 C 270.21875 210.441406 269.910156 211.992188 269.910156 213.851562 C 269.910156 237.414062 269.910156 260.816406 269.910156 284.378906 C 269.910156 288.097656 270.527344 291.816406 272.542969 295.074219 C 277.191406 302.359375 285.558594 305.613281 293.773438 303.132812 C 301.519531 300.808594 306.636719 293.988281 306.636719 285.308594 C 306.636719 249.65625 306.636719 213.851562 306.636719 178.203125 C 306.789062 177.273438 307.101562 176.1875 306.324219 175.257812 " fill-opacity="1" fill-rule="nonzero"/><path fill="#5db67a" d="M 381.636719 129.53125 C 378.847656 105.199219 368 85.511719 347.082031 72.183594 C 335.457031 64.742188 322.75 60.710938 308.648438 60.710938 C 251.15625 60.867188 193.511719 60.710938 136.019531 60.867188 C 121.296875 60.867188 108.125 66.136719 96.039062 74.351562 C 94.488281 75.4375 93.25 76.988281 91.082031 76.832031 C 100.222656 67.996094 111.535156 63.503906 123.777344 60.558594 C 129.355469 59.316406 134.933594 59.164062 140.667969 59.164062 C 196.457031 59.164062 252.242188 59.164062 308.03125 59.164062 C 346.304688 59.164062 379.46875 89.386719 382.878906 127.515625 C 382.878906 128.292969 382.722656 128.914062 382.566406 129.6875 C 382.257812 129.6875 381.949219 129.6875 381.636719 129.53125 " fill-opacity="1" fill-rule="nonzero"/><path fill="#58b577" d="M 78.527344 347.929688 C 81.472656 348.394531 82.09375 351.339844 83.796875 353.042969 C 94.644531 364.976562 108.28125 371.796875 123.621094 375.984375 C 127.34375 376.914062 131.214844 377.066406 135.089844 377.066406 C 193.511719 377.066406 251.933594 377.378906 310.507812 376.914062 C 332.359375 376.757812 350.335938 367.304688 364.4375 350.253906 C 365.523438 349.011719 366.453125 347.617188 368.3125 347.464844 C 359.941406 360.328125 348.011719 368.386719 334.0625 373.96875 C 325.695312 377.222656 317.019531 378.773438 307.875 378.773438 C 251.3125 378.773438 194.597656 378.929688 138.035156 378.617188 C 114.324219 378.464844 95.109375 368.386719 80.078125 350.097656 C 79.304688 349.632812 78.992188 348.703125 78.527344 347.929688 " fill-opacity="1" fill-rule="nonzero"/><path fill="#58b577" d="M 83.332031 84.273438 C 83.332031 88.457031 79.457031 90.316406 77.445312 93.417969 C 69.695312 105.664062 65.511719 118.527344 65.046875 133.253906 C 63.652344 187.96875 64.890625 242.527344 64.425781 297.242188 C 64.273438 312.898438 66.285156 328.242188 75.121094 341.882812 C 76.359375 343.742188 78.839844 345.136719 78.375 347.929688 C 70.160156 338.628906 66.441406 327.3125 64.117188 315.378906 C 63.34375 311.191406 63.03125 306.851562 63.03125 302.511719 C 63.03125 245.78125 62.878906 189.050781 63.1875 132.476562 C 63.34375 114.34375 70.316406 98.6875 82.09375 84.890625 C 82.558594 84.582031 83.023438 84.425781 83.332031 84.273438 " fill-opacity="1" fill-rule="nonzero"/><path fill="#2fab56" d="M 381.636719 129.53125 C 381.949219 129.53125 382.257812 129.6875 382.566406 129.6875 C 382.566406 137.28125 382.722656 144.878906 382.722656 152.472656 C 382.722656 202.691406 382.722656 252.757812 382.722656 302.976562 C 382.722656 304.683594 382.566406 306.542969 382.566406 308.246094 C 382.257812 308.246094 381.949219 308.402344 381.636719 308.402344 C 381.636719 248.882812 381.636719 189.207031 381.636719 129.53125 " fill-opacity="1" fill-rule="nonzero"/><path fill="#5db67a" d="M 381.636719 308.558594 C 381.949219 308.558594 382.257812 308.402344 382.566406 308.402344 C 382.722656 319.71875 378.847656 329.792969 373.734375 339.558594 C 372.339844 342.347656 371.101562 345.292969 368.464844 347.152344 C 368.464844 343.433594 371.253906 341.109375 372.804688 338.164062 C 377.917969 328.863281 380.242188 318.941406 381.636719 308.558594 " fill-opacity="1" fill-rule="nonzero"/><path fill="#58b577" d="M 88.757812 78.847656 C 88.136719 81.171875 86.742188 82.722656 84.261719 83.34375 C 85.191406 81.171875 86.742188 79.933594 88.757812 78.847656 " fill-opacity="1" fill-rule="nonzero"/><path fill="#5db67a" d="M 90.460938 77.296875 C 90.152344 77.453125 89.996094 77.761719 89.6875 77.917969 C 89.996094 77.761719 90.304688 77.605469 90.460938 77.296875 " fill-opacity="1" fill-rule="nonzero"/><path fill="#fbfdfc" d="M 139.273438 152.628906 C 139.429688 144.722656 143.304688 138.832031 150.433594 135.886719 C 158.179688 132.476562 165.308594 134.335938 171.351562 140.226562 C 182.972656 151.699219 194.441406 163.324219 206.0625 174.949219 C 210.867188 179.753906 215.671875 184.246094 220.164062 189.207031 C 222.488281 191.84375 223.882812 191.378906 226.054688 189.207031 C 242.015625 173.085938 257.976562 157.121094 273.9375 141.15625 C 282.152344 132.941406 292.84375 132.167969 300.589844 139.140625 C 308.648438 146.425781 309.113281 158.207031 301.210938 166.113281 C 285.25 182.234375 269.132812 198.351562 253.019531 214.472656 C 244.03125 223.460938 234.886719 232.453125 225.898438 241.597656 C 223.882812 243.613281 222.800781 244.234375 220.320312 241.90625 C 195.214844 216.644531 170.113281 191.53125 145.007812 166.421875 C 141.289062 162.390625 139.121094 158.050781 139.273438 152.628906 " fill-opacity="1" fill-rule="nonzero"/><path fill="#fbfdfb" d="M 176.464844 287.011719 C 172.902344 299.878906 164.84375 305.613281 153.6875 303.441406 C 146.09375 302.046875 139.429688 295.074219 139.429688 287.167969 C 139.273438 250.121094 139.429688 213.078125 139.429688 176.03125 C 139.429688 175.722656 139.585938 175.566406 139.894531 174.949219 C 142.527344 176.1875 144.078125 178.667969 146.09375 180.527344 C 155.390625 189.671875 164.535156 198.972656 173.832031 208.273438 C 174.761719 209.203125 175.226562 210.597656 176.929688 210.597656 C 176.777344 210.753906 176.777344 211.0625 176.929688 211.21875 C 176.464844 211.683594 176.464844 212.148438 176.621094 212.613281 C 176 237.414062 176.15625 262.210938 176.464844 287.011719 " fill-opacity="1" fill-rule="nonzero"/><path fill="#fbfdfc" d="M 306.324219 175.257812 C 307.101562 176.1875 306.789062 177.273438 306.789062 178.203125 C 306.789062 213.851562 306.789062 249.65625 306.789062 285.308594 C 306.789062 293.988281 301.675781 300.808594 293.929688 303.132812 C 285.558594 305.613281 277.191406 302.359375 272.699219 295.074219 C 270.683594 291.816406 270.0625 288.097656 270.0625 284.378906 C 270.0625 260.816406 270.0625 237.414062 270.0625 213.851562 C 270.0625 211.992188 270.375 210.441406 271.769531 209.046875 C 282.769531 198.199219 293.617188 187.191406 304.621094 176.34375 C 305.085938 175.878906 305.394531 175.101562 306.324219 175.257812 " fill-opacity="1" fill-rule="nonzero"/><path fill="#2fab56" d="M 176.464844 287.011719 C 176.15625 262.210938 176 237.414062 176.464844 212.765625 C 176.621094 212.300781 176.621094 211.835938 176.777344 211.371094 C 176.621094 211.21875 176.621094 210.90625 176.777344 210.753906 C 177.859375 211.527344 178.015625 212.765625 178.015625 214.007812 C 178.015625 239.273438 178.015625 264.382812 178.015625 290.886719 C 177.242188 288.71875 176.777344 287.789062 176.464844 287.011719 " fill-opacity="1" fill-rule="nonzero"/><path fill="#48b061" d="M 176.777344 211.21875 C 176.621094 211.683594 176.621094 212.148438 176.464844 212.613281 C 176.3125 212.148438 176.3125 211.683594 176.777344 211.21875 " fill-opacity="1" fill-rule="nonzero"/></svg>