<svg xmlns="http://www.w3.org/2000/svg" xmlns:xlink="http://www.w3.org/1999/xlink" width="600" zoomAndPan="magnify" viewBox="0 0 450 449.999984" height="600" preserveAspectRatio="xMidYMid meet" version="1.0"><defs><clipPath id="da1949db47"><path d="M 66.046875 66.046875 L 384.046875 66.046875 L 384.046875 383 L 66.046875 383 Z M 66.046875 66.046875 " clip-rule="nonzero"/></clipPath><clipPath id="2a347ee4c7"><path d="M 153 124 L 299 124 L 299 384.046875 L 153 384.046875 Z M 153 124 " clip-rule="nonzero"/></clipPath></defs><g clip-path="url(#da1949db47)"><path fill="#0866ff" d="M 384.089844 225.078125 C 384.089844 137.242188 312.898438 66.046875 225.078125 66.046875 C 137.253906 66.046875 66.046875 137.242188 66.046875 225.078125 C 66.046875 299.652344 117.386719 362.238281 186.652344 379.425781 L 186.652344 273.675781 L 153.855469 273.675781 L 153.855469 225.078125 L 186.652344 225.078125 L 186.652344 204.136719 C 186.652344 150.015625 211.148438 124.925781 264.285156 124.925781 C 274.359375 124.925781 291.746094 126.894531 298.851562 128.878906 L 298.851562 172.921875 C 295.101562 172.523438 288.578125 172.324219 280.484375 172.324219 C 254.40625 172.324219 244.332031 182.199219 244.332031 207.878906 L 244.332031 225.0625 L 296.269531 225.0625 L 287.347656 273.660156 L 244.332031 273.660156 L 244.332031 382.921875 C 323.074219 373.414062 384.089844 306.359375 384.089844 225.0625 Z M 384.089844 225.078125 " fill-opacity="1" fill-rule="nonzero"/></g><g clip-path="url(#2a347ee4c7)"><path fill="#ffffff" d="M 287.363281 273.660156 L 296.285156 225.0625 L 244.34375 225.0625 L 244.34375 207.878906 C 244.34375 182.199219 254.421875 172.324219 280.5 172.324219 C 288.589844 172.324219 295.113281 172.523438 298.867188 172.921875 L 298.867188 128.878906 C 291.761719 126.90625 274.375 124.925781 264.296875 124.925781 C 211.160156 124.925781 186.667969 150.015625 186.667969 204.136719 L 186.667969 225.078125 L 153.871094 225.078125 L 153.871094 273.675781 L 186.667969 273.675781 L 186.667969 379.425781 C 198.972656 382.476562 211.832031 384.105469 225.089844 384.105469 C 231.613281 384.105469 238.035156 383.707031 244.359375 382.933594 L 244.359375 273.675781 L 287.378906 273.675781 Z M 287.363281 273.660156 " fill-opacity="1" fill-rule="nonzero"/></g></svg>
