<svg xmlns="http://www.w3.org/2000/svg" viewBox="0 0 450 450">
  <path d="M434.3 225c0-14.8-1.3-29.1-3.8-42.9H225v81.2h117.1c-5 27.1-20.4 50.1-43.4 65.5v54.5h70.2C408 342.2 434.3 288.2 434.3 225z" fill="#4285F4"/>
  <path d="M225 450c58.5 0 107.6-19.4 143.4-52.7l-70.2-54.5c-19.4 13-44.2 20.7-73.2 20.7-56.3 0-103.9-38-121-89.1H31.8v56.3C67.4 399.4 141.5 450 225 450z" fill="#34A853"/>
  <path d="M104 274.4a136.3 136.3 0 010-98.8v-56.3H31.8A225 225 0 000 225c0 36.3 8.7 70.6 24 100.7L104 274.4z" fill="#FBBC05"/>
  <path d="M225 89.7c31.7 0 60.2 10.9 82.6 32.3l62-62C331.6 22.1 282.5 0 225 0 141.5 0 67.4 50.6 31.8 124.3l72.2 56.3C121.1 127.7 168.7 89.7 225 89.7z" fill="#EA4335"/>
</svg>
