<svg width="73" height="60" viewBox="0 0 73 60" fill="none" xmlns="http://www.w3.org/2000/svg">
<path d="M33.916 48H22.936V44.706C21.228 46.597 17.995 48.732 12.81 48.732C5.978 48.732 3.05 44.645 3.05 39.582V18.537H14.03V34.885C14.03 37.874 15.616 39.033 18.3 39.033C20.74 39.033 22.021 37.752 22.936 36.715V18.537H33.916V48ZM51.0232 44.889V59.224H40.0432V18.537H51.0232V21.648C53.4022 18.842 56.2692 17.805 59.3192 17.805C66.6392 17.805 72.2512 23.173 72.2512 33.238C72.2512 43.364 66.6392 48.732 59.3192 48.732C56.2692 48.732 53.4632 47.695 51.0232 44.889ZM61.0272 33.238C61.0272 29.578 58.4652 27.504 55.5372 27.504C54.1342 27.504 52.0602 28.236 51.0232 29.517V37.02C51.9992 38.24 54.1342 39.033 55.5372 39.033C58.4652 39.033 61.0272 36.959 61.0272 33.238Z" fill="#191919"/>
<path d="M2.95343 20.8654H14.0466V35H2.95343V20.8654Z" fill="#AAF5A6" fill-opacity="0.07"/>
<path d="M2.95343 13.4615H14.0466V24.2308H2.95343V13.4615Z" fill="#1D4D1A"/>
<path d="M7.89957 0.336538C8.16643 -0.11218 8.83357 -0.112179 9.10043 0.336539L16.9061 13.4615C17.1729 13.9103 16.8394 14.4712 16.3056 14.4712H0.694355C0.160636 14.4712 -0.172938 13.9103 0.093922 13.4615L7.89957 0.336538Z" fill="#0AB801"/>
<path d="M22.638 13V0.399999H28.218C28.998 0.399999 29.706 0.579999 30.342 0.94C30.978 1.288 31.476 1.762 31.836 2.362C32.208 2.962 32.394 3.646 32.394 4.414C32.394 5.17 32.208 5.86 31.836 6.484C31.476 7.096 30.978 7.582 30.342 7.942C29.706 8.302 28.998 8.482 28.218 8.482H25.248V13H22.638ZM29.784 13L26.58 7.312L29.352 6.862L32.916 13.018L29.784 13ZM25.248 6.286H28.092C28.416 6.286 28.698 6.214 28.938 6.07C29.19 5.914 29.382 5.704 29.514 5.44C29.646 5.164 29.712 4.858 29.712 4.522C29.712 4.162 29.634 3.85 29.478 3.586C29.322 3.322 29.094 3.118 28.794 2.974C28.494 2.818 28.146 2.74 27.75 2.74H25.248V6.286ZM33.7475 13L38.6795 0.399999H41.0915L46.0055 13H43.2335L40.6955 6.214C40.6235 6.022 40.5335 5.776 40.4255 5.476C40.3295 5.176 40.2275 4.858 40.1195 4.522C40.0115 4.186 39.9095 3.868 39.8135 3.568C39.7175 3.256 39.6455 2.998 39.5975 2.794L40.0835 2.776C40.0115 3.052 39.9275 3.34 39.8315 3.64C39.7475 3.928 39.6575 4.228 39.5615 4.54C39.4655 4.84 39.3635 5.134 39.2555 5.422C39.1475 5.71 39.0455 5.992 38.9495 6.268L36.4115 13H33.7475ZM36.0335 10.354L36.9155 8.176H42.6935L43.5935 10.354H36.0335ZM47.7747 13V0.399999H50.2407L54.8307 7.87L53.2107 7.852L57.8547 0.399999H60.2127V13H57.5667V8.68C57.5667 7.6 57.5907 6.628 57.6387 5.764C57.6987 4.9 57.7947 4.042 57.9267 3.19L58.2507 4.036L54.5607 9.76H53.3727L49.7547 4.072L50.0607 3.19C50.1927 3.994 50.2827 4.822 50.3307 5.674C50.3907 6.514 50.4207 7.516 50.4207 8.68V13H47.7747ZM63.4896 13V0.399999H68.8356C69.5796 0.399999 70.2516 0.579999 70.8516 0.94C71.4636 1.288 71.9436 1.768 72.2916 2.38C72.6516 2.992 72.8316 3.682 72.8316 4.45C72.8316 5.23 72.6516 5.932 72.2916 6.556C71.9436 7.18 71.4636 7.678 70.8516 8.05C70.2516 8.41 69.5796 8.59 68.8356 8.59H66.1896V13H63.4896ZM66.1536 6.16H68.5296C68.8176 6.16 69.0756 6.088 69.3036 5.944C69.5316 5.788 69.7116 5.584 69.8436 5.332C69.9876 5.08 70.0596 4.792 70.0596 4.468C70.0596 4.144 69.9876 3.862 69.8436 3.622C69.7116 3.37 69.5316 3.178 69.3036 3.046C69.0756 2.902 68.8176 2.83 68.5296 2.83H66.1536V6.16Z" fill="#191919"/>
</svg>
